:SAMPLES-PER-SECOND 30
:FULLY-SPECIFIED
:DEGREES
145
root  36.7418 18.7814 0.714995 -157.41 82.474 158.233
RightUpLeg  -69.9148 -6.23948 10.0399
RightLeg  129.752 5.35628 7.63209
RightFoot  -5.6705 1.42384 -21.6667
RightToes  1.86264e-009 -3.18055e-015 8.94531e-016
Spine  52.9129 -7.11313 4.93542
Spine1  -17.5016 -4.88126 5.23747
HEad  -61.8477 5.03702 6.23339
LeftShoulder1  0 -2.69403e-036 -1.28585e-037
LeftArm  3.54762 -56.9696 -85.7431
LeftForeArm  9.21559 -2.81286 4.0799
LeftHand  -2.22449 0.386924 33.7606
RightShoulder  -2.48481e-017 0 -8.08114e-019
RightArm  -3.0143 17.849 97.9043
RightForeArm  31.5436 7.54913 2.38516
RightHand  10.3638 -22.3946 -50.3818
LeftUpLeg  -25.19 -20.2019 3.52116
LeftLeg  82.7721 -15.431 -21.8629
LeftFoot  25.3239 2.76215 -7.62719
LeftToes  -3.27418e-010 -1.10613e-010 -1.08532e-012
146
root  37.5192 18.571 0.702192 -153.253 80.4754 162.76
RightUpLeg  -71.5981 -7.0554 11.2414
RightLeg  130.298 4.84244 8.08179
RightFoot  -1.71921 1.3558 -13.8369
RightToes  1.86264e-009 -3.18055e-015 8.94531e-016
Spine  52.3346 -6.87269 6.62467
Spine1  -17.3685 -3.917 6.90833
HEad  -60.8631 3.65541 5.94017
LeftShoulder1  0 -2.69403e-036 -1.28585e-037
LeftArm  5.30061 -54.3592 -90.8897
LeftForeArm  10.2999 -2.29114 4.08037
LeftHand  -2.52433 0.138666 36.1443
RightShoulder  -2.48481e-017 0 -8.08114e-019
RightArm  -1.7649 14.6442 95.0662
RightForeArm  30.0479 8.96401 1.83313
RightHand  10.5125 -22.5389 -50.6826
LeftUpLeg  -23.3352 -22.1431 5.6221
LeftLeg  81.4047 -16.7783 -25.8016
LeftFoot  25.7527 3.24187 -8.8724
LeftToes  -3.27418e-010 -1.10613e-010 -1.08532e-012
147
root  38.3359 18.3211 0.745094 -149.812 78.4016 166.123
RightUpLeg  -71.2339 -7.46402 11.8903
RightLeg  129.791 3.45794 9.78834
RightFoot  2.77416 1.13424 -8.06699
RightToes  1.86264e-009 -3.18055e-015 8.94531e-016
Spine  51.5586 -6.84888 8.36214
Spine1  -17.611 -3.16558 8.07454
HEad  -60.0229 2.6305 5.41959
LeftShoulder1  0 -2.69403e-036 -1.28585e-037
LeftArm  6.33967 -51.4883 -95.1056
LeftForeArm  12.3076 -2.28463 4.18064
LeftHand  -2.75475 -0.00266695 38.1698
RightShoulder  -2.48481e-017 0 -8.08114e-019
RightArm  2.86856 10.8525 92.9775
RightForeArm  25.3291 11.3702 0.758298
RightHand  10.4442 -22.497 -50.473
LeftUpLeg  -21.8942 -23.9681 7.88002
LeftLeg  79.6743 -18.322 -28.6414
LeftFoot  26.8049 3.79599 -10.113
LeftToes  -3.27418e-010 -1.10613e-010 -1.08532e-012
148
root  39.1946 18.1225 0.848404 -146.07 76.6095 169.658
RightUpLeg  -68.8921 -6.78016 12.2864
RightLeg  127.977 1.23109 13.0869
RightFoot  6.64951 1.38907 -7.87674
RightToes  1.86264e-009 -3.18055e-015 8.94531e-016
Spine  51.2304 -6.64179 10.4144
Spine1  -18.6628 -1.96953 8.19955
HEad  -59.6432 0.602665 5.1697
LeftShoulder1  0 -2.69403e-036 -1.28585e-037
LeftArm  7.64062 -48.4818 -99.6988
LeftForeArm  14.6365 -2.76311 3.95637
LeftHand  -2.89581 -0.102878 39.2586
RightShoulder  -2.48481e-017 0 -8.08114e-019
RightArm  20.238 4.8257 90.9698
RightForeArm  6.05133 16.2712 -7.43911
RightHand  9.78509 -21.9461 -48.7677
LeftUpLeg  -20.1061 -25.3767 10.1138
LeftLeg  77.0672 -20.2042 -30.2497
LeftFoot  28.1567 4.07896 -10.4927
LeftToes  -3.27418e-010 -1.10613e-010 -1.08532e-012
149
root  40.1391 18.0557 0.984036 -136.554 75.7675 178.75
RightUpLeg  -65.9078 -3.86932 13.6322
RightLeg  124.983 -0.596198 16.8813
RightFoot  8.47428 1.58209 -8.31437
RightToes  1.86264e-009 -3.18055e-015 8.94531e-016
Spine  51.329 -5.75264 13.4155
Spine1  -20.2007 0.497349 5.86095
HEad  -59.6846 -2.91473 5.4946
LeftShoulder1  0 -2.69403e-036 -1.28585e-037
LeftArm  9.88534 -45.7058 -104.787
LeftForeArm  16.97 -3.39928 2.81649
LeftHand  -3.03665 -0.223435 40.1749
RightShoulder  -2.48481e-017 0 -8.08114e-019
RightArm  30.5936 -3.86096 87.9392
RightForeArm  -9.30636 21.9685 -20.4715
RightHand  8.67098 -20.9636 -45.6872
LeftUpLeg  -17.684 -24.7014 12.9852
LeftLeg  73.4732 -22.7202 -31.3905
LeftFoot  29.4056 3.93771 -9.79184
LeftToes  -3.27418e-010 -1.10613e-010 -1.08532e-012
150
root  41.1484 18.0329 1.11683 -119.641 75.3592 -165.273
RightUpLeg  -63.3302 0.676814 16.2799
RightLeg  121.842 -1.01917 19.4385
RightFoot  8.0216 1.3031 -6.96736
RightToes  1.86264e-009 -3.18055e-015 8.94531e-016
Spine  51.3877 -4.52652 17.0272
Spine1  -21.4982 3.55826 0.627381
HEad  -59.9204 -6.26832 6.2944
LeftShoulder1  0 -2.69403e-036 -1.28585e-037
LeftArm  12.2101 -43.3424 -108.566
LeftForeArm  19.2394 -4.48977 0.989818
LeftHand  -3.18983 -0.320506 41.3471
RightShoulder  -2.48481e-017 0 -8.08114e-019
RightArm  20.3992 -12.5763 84.924
RightForeArm  -5.63722 30.1743 -29.7348
RightHand  7.67973 -20.0631 -42.5866
LeftUpLeg  -14.9504 -21.2649 16.503
LeftLeg  69.3138 -25.6026 -32.0406
LeftFoot  30.547 3.82238 -9.21553
LeftToes  -3.27418e-010 -1.10613e-010 -1.08532e-012
151
root  42.0971 17.9195 1.24135 -102.727 74.5341 -149.747
RightUpLeg  -61.3506 4.585 18.9043
RightLeg  119.696 -0.455818 20.1405
RightFoot  6.3426 1.05084 -6.13832
RightToes  1.86264e-009 -3.18055e-015 8.94531e-016
Spine  51.361 -3.68901 19.6055
Spine1  -22.7997 5.58143 -5.03731
HEad  -59.9357 -7.62028 7.11243
LeftShoulder1  0 -2.69403e-036 -1.28585e-037
LeftArm  12.6017 -41.1208 -108.846
LeftForeArm  21.2553 -6.79997 -0.186073
LeftHand  -3.2767 -0.345851 42.1821
RightShoulder  -2.48481e-017 0 -8.08114e-019
RightArm  10.2133 -17.8397 84.124
RightForeArm  -2.07234 39.1048 -37.3832
RightHand  7.10097 -19.5415 -40.5004
LeftUpLeg  -12.6263 -17.091 19.3019
LeftLeg  65.086 -27.5706 -30.8878
LeftFoot  31.7651 4.00573 -9.36697
LeftToes  -3.27418e-010 -1.10613e-010 -1.08532e-012
152
root  42.8812 17.7769 1.37892 -93.8695 73.8481 -142.234
RightUpLeg  -59.9014 6.46015 20.0145
RightLeg  118.593 0.266471 19.8047
RightFoot  4.23563 0.963787 -6.34797
RightToes  1.86264e-009 -3.18055e-015 8.94531e-016
Spine  51.556 -3.41436 20.0964
Spine1  -24.7321 5.91318 -8.04784
HEad  -59.466 -7.36789 7.56536
LeftShoulder1  0 -2.69403e-036 -1.28585e-037
LeftArm  12.6246 -38.0789 -106.773
LeftForeArm  21.3082 -10.2953 0.354591
LeftHand  -3.29638 -0.342043 42.4269
RightShoulder  -2.48481e-017 0 -8.08114e-019
RightArm  6.48897 -17.639 83.7521
RightForeArm  -2.70761 44.547 -43.7445
RightHand  6.72792 -19.1642 -39.1779
LeftUpLeg  -11.4367 -14.805 20.2604
LeftLeg  61.252 -27.4413 -27.2691
LeftFoot  33.1206 4.10561 -9.28946
LeftToes  -3.27418e-010 -1.10613e-010 -1.08532e-012
153
root  43.5298 17.7905 1.53969 -93.2119 73.8867 -142.531
RightUpLeg  -58.9153 6.974 19.2808
RightLeg  117.65 0.706291 19.7756
RightFoot  1.69521 0.690796 -5.23386
RightToes  1.86264e-009 -3.18055e-015 8.94531e-016
Spine  51.9908 -3.40266 19.4195
Spine1  -26.8921 5.39936 -8.37933
HEad  -58.8467 -7.43358 7.84739
LeftShoulder1  0 -2.69403e-036 -1.28585e-037
LeftArm  14.0336 -35.0548 -105.312
LeftForeArm  19.9578 -12.9846 1.52064
LeftHand  -3.34551 -0.380955 42.7364
RightShoulder  -2.48481e-017 0 -8.08114e-019
RightArm  5.70356 -13.0575 81.1219
RightForeArm  -4.36721 47.3462 -47.6217
RightHand  6.3298 -18.6925 -37.9068
LeftUpLeg  -11.5791 -14.3372 19.8948
LeftLeg  58.5572 -25.6239 -22.6808
LeftFoot  34.417 3.816 -8.35141
LeftToes  -3.27418e-010 -1.10613e-010 -1.08532e-012
154
root  44.1371 18.0152 1.71158 -97.0402 74.3608 -146.945
RightUpLeg  -57.9913 7.24894 17.3469
RightLeg  116.205 0.681912 21.0313
RightFoot  -0.938102 0.407803 -3.83217
RightToes  1.86264e-009 -3.18055e-015 8.94531e-016
Spine  52.4808 -3.51067 18.9508
Spine1  -28.4611 4.90297 -8.51024
HEad  -58.697 -8.66955 8.4952
LeftShoulder1  0 -2.69403e-036 -1.28585e-037
LeftArm  15.4541 -33.0953 -105.832
LeftForeArm  20.2912 -13.0586 1.23962
LeftHand  -3.46615 -0.466888 43.5378
RightShoulder  -2.48481e-017 0 -8.08114e-019
RightArm  5.13937 -6.11605 76.0774
RightForeArm  -5.81246 48.1164 -48.7506
RightHand  5.94869 -18.2536 -36.538
LeftUpLeg  -12.7642 -13.5597 19.2871
LeftLeg  57.5837 -23.2703 -18.7499
LeftFoot  34.9356 3.41931 -7.36251
LeftToes  -3.27418e-010 -1.10613e-010 -1.08532e-012
155
root  44.7506 18.3453 1.88385 -103.556 74.9926 -153.757
RightUpLeg  -56.6176 7.26773 15.0972
RightLeg  114.299 0.545716 23.0897
RightFoot  -3.052 0.391986 -4.47849
RightToes  1.86264e-009 -3.18055e-015 8.94531e-016
Spine  53.1176 -3.87704 18.7724
Spine1  -29.4498 4.34016 -9.67155
HEad  -59.188 -10.2434 9.66269
LeftShoulder1  0 -2.69403e-036 -1.28585e-037
LeftArm  16.3552 -32.223 -107.457
LeftForeArm  21.9857 -11.5025 -0.175072
LeftHand  -3.60254 -0.553544 44.4869
RightShoulder  -2.48481e-017 0 -8.08114e-019
RightArm  3.84549 2.08339 70.1247
RightForeArm  -5.17969 46.4168 -46.1275
RightHand  5.62614 -17.9542 -35.0171
LeftUpLeg  -14.7164 -11.5771 18.6509
LeftLeg  58.3626 -20.5116 -15.0181
LeftFoot  33.5245 3.07057 -6.83081
LeftToes  -3.27418e-010 -1.10613e-010 -1.08532e-012
